<?xml version='1.0' encoding='UTF-8' standalone='no'?>
<!-- Created with Fritzing (http://www.fritzing.org/) -->
<svg xmlns:svg='http://www.w3.org/2000/svg' xmlns='http://www.w3.org/2000/svg' version='1.2' baseProfile='tiny' x='0in' y='0in' width='3.3069in' height='2.5in' viewBox='0 0 238.097 180' >
<g partID='57560'><g transform='translate(136.45,40.1039)' ><g id="schematic" xmlns="http://www.w3.org/2000/svg">
<line y2="0.216" x2="8.63003" x1="7.55002" stroke="#000000" stroke-linecap="round" stroke-width="0.432002" xmlns="http://www.w3.org/2000/svg" y1="3.096" class="other"/>
<line y2="5.976" x2="10.43" x1="8.63003" stroke="#000000" stroke-linecap="round" stroke-width="0.432002" xmlns="http://www.w3.org/2000/svg" y1="0.216" class="other"/>
<line y2="0.216" x2="12.23" x1="10.43" stroke="#000000" stroke-linecap="round" stroke-width="0.432002" xmlns="http://www.w3.org/2000/svg" y1="5.976" class="other"/>
<line y2="5.976" x2="14.03" x1="12.23" stroke="#000000" stroke-linecap="round" stroke-width="0.432002" xmlns="http://www.w3.org/2000/svg" y1="0.216" class="other"/>
<line y2="0.216" x2="15.8301" x1="14.03" stroke="#000000" stroke-linecap="round" stroke-width="0.432002" xmlns="http://www.w3.org/2000/svg" y1="5.976" class="other"/>
<line y2="5.976" x2="17.6301" x1="15.8301" stroke="#000000" stroke-linecap="round" stroke-width="0.432002" xmlns="http://www.w3.org/2000/svg" y1="0.216" class="other"/>
<line y2="0.216" x2="19.4301" x1="17.6301" stroke="#000000" stroke-linecap="round" stroke-width="0.432002" xmlns="http://www.w3.org/2000/svg" y1="5.976" class="other"/>
<line y2="5.976" x2="21.2301" x1="19.4301" stroke="#000000" stroke-linecap="round" stroke-width="0.432002" xmlns="http://www.w3.org/2000/svg" y1="0.216" class="other"/>
<line y2="3.096" x2="21.9501" x1="21.2301" stroke="#000000" stroke-linecap="round" stroke-width="0.432002" xmlns="http://www.w3.org/2000/svg" y1="5.976" class="other"/>
<line y2="3.096" id="connector1pin" x2="21.9501" x1="29.1502" connectorname="2" stroke="#787878" stroke-linecap="round" stroke-width="0.700001" xmlns="http://www.w3.org/2000/svg" y1="3.096" class="pin"/>
<g y="3.096" id="connector1terminal" fill="none" height="0.000283465" stroke="none" x="29.1502" stroke-width="0" width="0.000283466" xmlns="http://www.w3.org/2000/svg" class="terminal"/>
<text y="2.046" fill="#8c8c8c" stroke="none" stroke-width="0" x="25.5501" text-anchor="middle" xmlns="http://www.w3.org/2000/svg" class="text" font-family="'Droid Sans'" font-size="2.50001">2</text>
<line y2="3.096" id="connector0pin" x2="7.55002" x1="0.350001" connectorname="1" stroke="#787878" stroke-linecap="round" stroke-width="0.700001" xmlns="http://www.w3.org/2000/svg" y1="3.096" class="pin"/>
<g y="3.096" id="connector0terminal" fill="none" height="0.000283465" stroke="none" x="0.350001" stroke-width="0" width="0.000283466" xmlns="http://www.w3.org/2000/svg" class="terminal"/>
<text y="2.046" fill="#8c8c8c" stroke="none" stroke-width="0" x="3.95001" text-anchor="middle" xmlns="http://www.w3.org/2000/svg" class="text" font-family="'Droid Sans'" font-size="2.50001">1</text>
</g>
</g></g><g partID='854174770'><g id="schematic">
<rect y="14.85" fill="#FFFFFF" height="150.3" stroke="#000000" stroke-linecap="round" x="14.85" stroke-width="0.3175" width="78.3"/>
<line y2="28.8" id="connector61pin" fill="none" x2="107.65" x1="93.25" stroke="#787878" stroke-linecap="round" stroke-width="0.2469" y1="28.8"/>
<g transform="matrix(1, 0, 0, 1, 82.2432, 29.5)">
<text fill="#8C8C8C" font-family="'DroidSans'" font-size="3.5">D0/RX</text>
</g>
<g y="28.45" id="connector61terminal" fill="none" height="0.7" x="107.65" width="0.699"/>
<line y2="36" id="connector62pin" fill="none" x2="107.65" x1="93.25" stroke="#787878" stroke-linecap="round" stroke-width="0.2469" y1="36"/>
<g transform="matrix(1, 0, 0, 1, 82.4912, 36.7012)">
<text fill="#8C8C8C" font-family="'DroidSans'" font-size="3.5">D1/TX</text>
</g>
<g y="35.65" id="connector62terminal" fill="none" height="0.7" x="107.65" width="0.699"/>
<line y2="43.2" id="connector63pin" fill="none" x2="107.65" x1="93.25" stroke="#787878" stroke-linecap="round" stroke-width="0.2469" y1="43.2"/>
<g transform="matrix(1, 0, 0, 1, 87.5283, 43.9004)">
<text fill="#8C8C8C" font-family="'DroidSans'" font-size="3.5">D2</text>
</g>
<g y="42.85" id="connector63terminal" fill="none" height="0.7" x="107.65" width="0.699"/>
<line y2="50.4" id="connector64pin" fill="none" x2="107.65" x1="93.25" stroke="#787878" stroke-linecap="round" stroke-width="0.2469" y1="50.4"/>
<g transform="matrix(1, 0, 0, 1, 78.4639, 51.0996)">
<text fill="#8C8C8C" font-family="'DroidSans'" font-size="3.5">D3 PWM</text>
</g>
<g y="50.05" id="connector64terminal" fill="none" height="0.7" x="107.65" width="0.699"/>
<line y2="57.6" id="connector65pin" fill="none" x2="107.65" x1="93.25" stroke="#787878" stroke-linecap="round" stroke-width="0.2469" y1="57.6"/>
<g transform="matrix(1, 0, 0, 1, 87.5283, 58.3008)">
<text fill="#8C8C8C" font-family="'DroidSans'" font-size="3.5">D4</text>
</g>
<g y="57.25" id="connector65terminal" fill="none" height="0.7" x="107.65" width="0.699"/>
<line y2="64.8" id="connector66pin" fill="none" x2="107.65" x1="93.25" stroke="#787878" stroke-linecap="round" stroke-width="0.2469" y1="64.8"/>
<g transform="matrix(1, 0, 0, 1, 78.4639, 65.5)">
<text fill="#8C8C8C" font-family="'DroidSans'" font-size="3.5">D5 PWM</text>
</g>
<g y="64.45" id="connector66terminal" fill="none" height="0.7" x="107.65" width="0.699"/>
<line y2="72" id="connector67pin" fill="none" x2="107.65" x1="93.25" stroke="#787878" stroke-linecap="round" stroke-width="0.2469" y1="72"/>
<g transform="matrix(1, 0, 0, 1, 78.4639, 72.7012)">
<text fill="#8C8C8C" font-family="'DroidSans'" font-size="3.5">D6 PWM</text>
</g>
<g y="71.65" id="connector67terminal" fill="none" height="0.7" x="107.65" width="0.699"/>
<line y2="79.2" id="connector68pin" fill="none" x2="107.65" x1="93.25" stroke="#787878" stroke-linecap="round" stroke-width="0.2469" y1="79.2"/>
<g transform="matrix(1, 0, 0, 1, 87.5283, 79.9004)">
<text fill="#8C8C8C" font-family="'DroidSans'" font-size="3.5">D7</text>
</g>
<g y="78.85" id="connector68terminal" fill="none" height="0.7" x="107.65" width="0.699"/>
<line y2="86.4" id="connector51pin" fill="none" x2="107.65" x1="93.25" stroke="#787878" stroke-linecap="round" stroke-width="0.2469" y1="86.4"/>
<g transform="matrix(1, 0, 0, 1, 87.5283, 87.0996)">
<text fill="#8C8C8C" font-family="'DroidSans'" font-size="3.5">D8</text>
</g>
<g y="86.05" id="connector51terminal" fill="none" height="0.7" x="107.65" width="0.699"/>
<line y2="93.6" id="connector52pin" fill="none" x2="107.65" x1="93.25" stroke="#787878" stroke-linecap="round" stroke-width="0.2469" y1="93.6"/>
<g transform="matrix(1, 0, 0, 1, 78.4639, 94.3008)">
<text fill="#8C8C8C" font-family="'DroidSans'" font-size="3.5">D9 PWM</text>
</g>
<g y="93.25" id="connector52terminal" fill="none" height="0.699" x="107.65" width="0.699"/>
<line y2="100.8" id="connector53pin" fill="none" x2="107.65" x1="93.25" stroke="#787878" stroke-linecap="round" stroke-width="0.2469" y1="100.8"/>
<g transform="matrix(1, 0, 0, 1, 71.5967, 101.5)">
<text fill="#8C8C8C" font-family="'DroidSans'" font-size="3.5">D10 PWM/SS</text>
</g>
<g y="100.449" id="connector53terminal" fill="none" height="0.701" x="107.65" width="0.699"/>
<line y2="108" id="connector54pin" fill="none" x2="107.65" x1="93.25" stroke="#787878" stroke-linecap="round" stroke-width="0.2469" y1="108"/>
<g transform="matrix(1, 0, 0, 1, 66.585, 108.701)">
<text fill="#8C8C8C" font-family="'DroidSans'" font-size="3.5">D11 PWM/MOSI</text>
</g>
<g y="107.65" id="connector54terminal" fill="none" height="0.699" x="107.65" width="0.699"/>
<line y2="115.2" id="connector55pin" fill="none" x2="107.65" x1="93.25" stroke="#787878" stroke-linecap="round" stroke-width="0.2469" y1="115.2"/>
<g transform="matrix(1, 0, 0, 1, 75.6494, 115.9)">
<text fill="#8C8C8C" font-family="'DroidSans'" font-size="3.5">D12/MISO</text>
</g>
<g y="114.85" id="connector55terminal" fill="none" height="0.7" x="107.65" width="0.699"/>
<line y2="122.4" id="connector41pin" fill="none" x2="107.65" x1="93.25" y1="122.4"/>
<rect y="122.05" id="connector41terminal" fill="none" height="0.7" x="107.65" width="0.699"/>
<line y2="122.4" id="connector56pin" fill="none" x2="107.65" x1="93.25" stroke="#787878" stroke-linecap="round" stroke-width="0.2469" y1="122.4"/>
<g transform="matrix(1, 0, 0, 1, 78.3408, 123.1)">
<text fill="#8C8C8C" font-family="'DroidSans'" font-size="3.5">D13/SCK</text>
</g>
<g y="122.05" id="connector56terminal" fill="none" height="0.7" x="107.65" width="0.699"/>
<line y2="28.8" id="connector43pin" fill="none" x2="14.75" x1="0.35" y1="28.8"/>
<g y="28.45" id="connector43terminal" fill="none" height="0.7" x="-0.35" width="0.7"/>
<line y2="28.8" id="connector85pin" fill="none" x2="14.75" x1="0.35" stroke="#787878" stroke-linecap="round" stroke-width="0.2469" y1="28.8"/>
<g transform="matrix(1, 0, 0, 1, 16.1494, 29.5)">
<text fill="#8C8C8C" font-family="'DroidSans'" font-size="3.5">RESET</text>
</g>
<g y="28.45" id="connector85terminal" fill="none" height="0.7" x="-0.35" width="0.7"/>
<line y2="36" id="connector49pin" fill="none" x2="14.75" x1="0.35" stroke="#787878" stroke-linecap="round" stroke-width="0.2469" y1="36"/>
<g transform="matrix(1, 0, 0, 1, 16.1494, 36.7012)">
<text fill="#8C8C8C" font-family="'DroidSans'" font-size="3.5">RESET2</text>
</g>
<rect y="35.65" id="connector49terminal" fill="none" height="0.7" x="-0.35" width="0.7"/>
<line y2="43.2" id="connector58pin" fill="none" x2="14.75" x1="0.35" stroke="#787878" stroke-linecap="round" stroke-width="0.2469" y1="43.2"/>
<g transform="matrix(1, 0, 0, 1, 16.1494, 43.9004)">
<text fill="#8C8C8C" font-family="'DroidSans'" font-size="3.5">AREF</text>
</g>
<g y="42.85" id="connector58terminal" fill="none" height="0.7" x="-0.35" width="0.7"/>
<line y2="50.4" id="connector84pin" fill="none" x2="14.75" x1="0.35" stroke="#787878" stroke-linecap="round" stroke-width="0.2469" y1="50.4"/>
<g transform="matrix(1, 0, 0, 1, 16.1494, 51.0996)">
<text fill="#8C8C8C" font-family="'DroidSans'" font-size="3.5">I</text>
</g>
<g transform="matrix(1, 0, 0, 1, 17.3013, 51.0996)">
<text fill="#8C8C8C" font-family="'DroidSans'" font-size="3.5">O</text>
</g>
<g transform="matrix(1, 0, 0, 1, 19.8989, 51.0996)">
<text fill="#8C8C8C" font-family="'DroidSans'" font-size="3.5">R</text>
</g>
<g transform="matrix(1, 0, 0, 1, 21.9634, 51.0996)">
<text fill="#8C8C8C" font-family="'DroidSans'" font-size="3.5">E</text>
</g>
<g transform="matrix(1, 0, 0, 1, 23.8105, 51.0996)">
<text fill="#8C8C8C" font-family="'DroidSans'" font-size="3.5">F</text>
</g>
<g y="50.05" id="connector84terminal" fill="none" height="0.7" x="-0.35" width="0.7"/>
<line y2="64.8" id="connector0pin" fill="none" x2="14.75" x1="0.35" stroke="#787878" stroke-linecap="round" stroke-width="0.2469" y1="64.8"/>
<g transform="matrix(1, 0, 0, 1, 16.1494, 65.5)">
<text fill="#8C8C8C" font-family="'DroidSans'" font-size="3.5">A0</text>
</g>
<g y="64.45" id="connector0terminal" fill="none" height="0.7" x="-0.35" width="0.7"/>
<line y2="72" id="connector1pin" fill="none" x2="14.75" x1="0.35" stroke="#787878" stroke-linecap="round" stroke-width="0.2469" y1="72"/>
<g transform="matrix(1, 0, 0, 1, 16.1494, 72.7012)">
<text fill="#8C8C8C" font-family="'DroidSans'" font-size="3.5">A1</text>
</g>
<g y="71.65" id="connector1terminal" fill="none" height="0.7" x="-0.35" width="0.7"/>
<line y2="79.2" id="connector2pin" fill="none" x2="14.75" x1="0.35" stroke="#787878" stroke-linecap="round" stroke-width="0.2469" y1="79.2"/>
<g transform="matrix(1, 0, 0, 1, 16.1494, 79.9004)">
<text fill="#8C8C8C" font-family="'DroidSans'" font-size="3.5">A2</text>
</g>
<g y="78.85" id="connector2terminal" fill="none" height="0.7" x="-0.35" width="0.7"/>
<line y2="86.4" id="connector3pin" fill="none" x2="14.75" x1="0.35" stroke="#787878" stroke-linecap="round" stroke-width="0.2469" y1="86.4"/>
<g transform="matrix(1, 0, 0, 1, 16.1494, 87.0996)">
<text fill="#8C8C8C" font-family="'DroidSans'" font-size="3.5">A3</text>
</g>
<g y="86.05" id="connector3terminal" fill="none" height="0.7" x="-0.35" width="0.7"/>
<line y2="93.6" id="connector39pin" fill="none" x2="14.75" x1="0.35" y1="93.6"/>
<g y="93.25" id="connector39terminal" fill="none" height="0.699" x="-0.35" width="0.7"/>
<line y2="93.6" id="connector42pin" fill="none" x2="14.75" x1="0.35" stroke="#787878" stroke-linecap="round" stroke-width="0.2469" y1="93.6"/>
<g transform="matrix(1, 0, 0, 1, 16.1494, 94.3008)">
<text fill="#8C8C8C" font-family="'DroidSans'" font-size="3.5">I</text>
</g>
<g transform="matrix(1, 0, 0, 1, 17.3013, 94.3008)">
<text fill="#8C8C8C" font-family="'DroidSans'" font-size="3.5">C</text>
</g>
<g transform="matrix(1, 0, 0, 1, 19.4121, 94.3008)">
<text fill="#8C8C8C" font-family="'DroidSans'" font-size="3.5">S</text>
</g>
<g transform="matrix(1, 0, 0, 1, 21.2285, 94.3008)">
<text fill="#8C8C8C" font-family="'DroidSans'" font-size="3.5">P</text>
</g>
<g transform="matrix(1, 0, 0, 1, 23.2451, 94.3008)">
<text fill="#8C8C8C" font-family="'DroidSans'" font-size="3.5"/>
</g>
<g transform="matrix(1, 0, 0, 1, 24.1543, 94.3008)">
<text fill="#8C8C8C" font-family="'DroidSans'" font-size="3.5">M</text>
</g>
<g transform="matrix(1, 0, 0, 1, 27.1997, 94.3008)">
<text fill="#8C8C8C" font-family="'DroidSans'" font-size="3.5">O</text>
</g>
<g transform="matrix(1, 0, 0, 1, 29.7974, 94.3008)">
<text fill="#8C8C8C" font-family="'DroidSans'" font-size="3.5">S</text>
</g>
<g transform="matrix(1, 0, 0, 1, 31.6143, 94.3008)">
<text fill="#8C8C8C" font-family="'DroidSans'" font-size="3.5">I</text>
</g>
<g y="93.25" id="connector42terminal" fill="none" height="0.699" x="-0.35" width="0.7"/>
<line y2="93.6" id="connector4pin" fill="none" x2="14.75" x1="0.35" y1="93.6"/>
<g y="93.25" id="connector4terminal" fill="none" height="0.699" x="-0.35" width="0.7"/>
<line y2="93.6" id="connector59pin" fill="none" x2="14.75" x1="0.35" stroke="#787878" stroke-linecap="round" stroke-width="0.2469" y1="93.6"/>
<g y="93.25" id="connector59terminal" fill="none" height="0.699" x="-0.35" width="0.7"/>
<line y2="100.8" id="connector5pin" fill="none" x2="14.75" x1="0.35" y1="100.8"/>
<g y="100.449" id="connector5terminal" fill="none" height="0.701" x="-0.35" width="0.7"/>
<line y2="100.8" id="connector60pin" fill="none" x2="14.75" x1="0.35" stroke="#787878" stroke-linecap="round" stroke-width="0.2469" y1="100.8"/>
<g transform="matrix(1, 0, 0, 1, 16.1494, 101.5)">
<text fill="#8C8C8C" font-family="'DroidSans'" font-size="3.5">A5/SCL</text>
</g>
<g y="100.449" id="connector60terminal" fill="none" height="0.701" x="-0.35" width="0.7"/>
<line y2="136.8" id="connector91pin" fill="none" x2="14.75" x1="0.35" stroke="#787878" stroke-linecap="round" stroke-width="0.2469" y1="136.8"/>
<g transform="matrix(1, 0, 0, 1, 16.1494, 137.5)">
<text fill="#8C8C8C" font-family="'DroidSans'" font-size="3.5">N/C</text>
</g>
<g y="136.449" id="connector91terminal" fill="none" height="0.701" x="-0.35" width="0.7"/>
<line y2="179.65" id="connector88pin" fill="none" x2="57.6" x1="57.6" y1="165.25"/>
<g y="179.65" id="connector88terminal" fill="none" height="0.699" x="57.25" width="0.699"/>
<line y2="179.65" id="connector57pin" fill="none" x2="57.6" x1="57.6" y1="165.25"/>
<g y="179.65" id="connector57terminal" fill="none" height="0.699" x="57.25" width="0.699"/>
<line y2="179.65" id="connector44pin" fill="none" x2="57.6" x1="57.6" y1="165.25"/>
<g y="179.65" id="connector44terminal" fill="none" height="0.699" x="57.25" width="0.699"/>
<line y2="179.65" id="connector50pin" fill="none" x2="57.6" x1="57.6" y1="165.25"/>
<rect y="179.65" id="connector50terminal" fill="none" height="0.699" x="57.25" width="0.699"/>
<line y2="179.65" id="connector89pin" fill="none" x2="57.6" x1="57.6" stroke="#787878" stroke-linecap="round" stroke-width="0.2469" y1="165.25"/>
<g transform="matrix(1, 0, 0, 1, 20.5669, 57.8026)">
<g>
<g transform="rotate(270)">
<g>
<g transform="matrix(1, 0, 0, 1, -106.047, 37.7329)">
<text fill="#8C8C8C" font-family="'DroidSans'" font-size="3.5">GND</text>
</g>
</g>
</g>
</g>
</g>
<g y="179.65" id="connector89terminal" fill="none" height="0.699" x="57.25" width="0.699"/>
<line y2="14.75" id="connector86pin" fill="none" x2="36" x1="36" stroke="#787878" stroke-linecap="round" stroke-width="0.2469" y1="0.35"/>
<g transform="matrix(1, 0, 0, 1, 12.9469, 5.69736)">
<g>
<g transform="rotate(270)">
<g>
<g transform="matrix(1, 0, 0, 1, -16.2968, 23.7533)">
<text fill="#8C8C8C" font-family="'DroidSans'" font-size="3.5">3V3</text>
</g>
</g>
</g>
</g>
</g>
<g y="-0.35" id="connector86terminal" fill="none" height="0.7" x="35.65" width="0.7"/>
<line y2="14.75" id="connector40pin" fill="none" x2="50.4" x1="50.4" y1="0.35"/>
<g y="-0.35" id="connector40terminal" fill="none" height="0.7" x="50.05" width="0.7"/>
<line y2="14.75" id="connector46pin" fill="none" x2="50.4" x1="50.4" y1="0.35"/>
<rect y="-0.35" id="connector46terminal" fill="none" height="0.7" x="50.05" width="0.7"/>
<line y2="14.75" id="connector87pin" fill="none" x2="50.4" x1="50.4" stroke="#787878" stroke-linecap="round" stroke-width="0.2469" y1="0.35"/>
<g transform="matrix(1, 0, 0, 1, 18.0269, 5.69736)">
<g>
<g transform="rotate(270)">
<g>
<g transform="matrix(1, 0, 0, 1, -14.369, 33.0737)">
<text fill="#8C8C8C" font-family="'DroidSans'" font-size="3.5">5V</text>
</g>
</g>
</g>
</g>
</g>
<g y="-0.35" id="connector87terminal" fill="none" height="0.7" x="50.05" width="0.7"/>
<line y2="14.75" id="connector90pin" fill="none" x2="64.8" x1="64.8" stroke="#787878" stroke-linecap="round" stroke-width="0.2469" y1="0.35"/>
<g transform="matrix(1, 0, 0, 1, 23.1069, 5.69736)">
<g>
<g transform="rotate(270)">
<g>
<g transform="matrix(1, 0, 0, 1, -16.1776, 42.3922)">
<text fill="#8C8C8C" font-family="'DroidSans'" font-size="3.5">VIN</text>
</g>
</g>
</g>
</g>
</g>
<g y="-0.35" id="connector90terminal" fill="none" height="0.7" x="64.449" width="0.701"/>
<g transform="matrix(1, 0, 0, 1, 46.7862, 81.3828)">
<text id="label" font-family="'DroidSans'" font-size="4.25">Arduino</text>
</g>
<g transform="matrix(1, 0, 0, 1, 50.4893, 85.916)">
<text id="label_1_" font-family="'DroidSans'" font-size="4.25">Uno</text>
</g>
<g transform="matrix(1, 0, 0, 1, 48.5928, 90.4512)">
<text id="label_2_" font-family="'DroidSans'" font-size="4.25">(Rev3)</text>
</g>
<g transform="matrix(1, 0, 0, 1, 50.1416, 94.9844)">
<text font-family="'DroidSans'" font-size="4.25">I</text>
</g>
<g transform="matrix(1, 0, 0, 1, 51.5401, 94.9844)">
<text font-family="'DroidSans'" font-size="4.25">C</text>
</g>
<g transform="matrix(1, 0, 0, 1, 54.1031, 94.9844)">
<text font-family="'DroidSans'" font-size="4.25">S</text>
</g>
<g transform="matrix(1, 0, 0, 1, 56.3086, 94.9844)">
<text font-family="'DroidSans'" font-size="4.25">P</text>
</g>
</g>
</g><g partID='854174800'><g transform='translate(208.8,64.3235)' ><g id="schematic" xmlns="http://www.w3.org/2000/svg">
<path id="connector0pin" fill="none" stroke="#787878" stroke-linecap="round" stroke-width="0.75" d="M7.201,7.575l0,-7.2" xmlns="http://www.w3.org/2000/svg"/>
<g y="0" id="connector0terminal" fill="none" height="0.953" x="6.728" width="0.945" xmlns="http://www.w3.org/2000/svg"/>
<path id="path4098" fill="none" stroke="#000000" stroke-linecap="round" stroke-width="0.9" d="M0.5,7.711L13.9,7.711" xmlns="http://www.w3.org/2000/svg"/>
<path id="path4100" fill="none" stroke="#000000" stroke-linecap="round" stroke-width="0.9" d="M2.732,10.456l8.935,0" xmlns="http://www.w3.org/2000/svg"/>
<path id="path4102" fill="none" stroke="#000000" stroke-linecap="round" stroke-width="0.9" d="M9.431,13.175L4.967,13.175" xmlns="http://www.w3.org/2000/svg"/>
</g>
</g></g><g partID='854174830'><g transform='translate(141.3,64.584)' ><g id="schematic">
<g>
<path d="M13.5,14.966L9.9,14.966c-0.193,0,-0.35,-0.156,-0.35,-0.35s0.156,-0.35,0.35,-0.35L13.5,14.266c0.193,0,0.35,0.156,0.35,0.35S13.694,14.966,13.5,14.966z"/>
</g>
<g>
<path d="M9.9,14.966L6.3,14.966c-0.193,0,-0.35,-0.156,-0.35,-0.35s0.157,-0.35,0.35,-0.35l3.6,0c0.193,0,0.35,0.156,0.35,0.35S10.093,14.966,9.9,14.966z"/>
</g>
<g>
<polygon fill="#FFFFFF" points="9.9,14.616,6.3,7.416,9.9,7.416,13.5,7.416"/>
<path d="M9.9,15.398L5.734,7.066l8.333,0L9.9,15.398zM6.866,7.766L9.9,13.834l3.034,-6.068L6.866,7.766z"/>
</g>
<g>
<path d="M9.9,14.841c-0.124,0,-0.225,-0.101,-0.225,-0.225l0,-7.2c0,-0.124,0.101,-0.225,0.225,-0.225s0.225,0.101,0.225,0.225l0,7.2C10.124,14.74,10.024,14.841,9.9,14.841z"/>
</g>
<g>
<path d="M1.8,12.141c-0.058,0,-0.115,-0.021,-0.159,-0.065c-0.088,-0.088,-0.088,-0.23,0,-0.318l2.34,-2.341c0.088,-0.088,0.23,-0.088,0.318,0s0.088,0.23,0,0.318l-2.34,2.341C1.915,12.12,1.858,12.141,1.8,12.141z"/>
</g>
<g>
<path d="M2.16,15.381c-0.058,0,-0.115,-0.021,-0.159,-0.065c-0.088,-0.088,-0.088,-0.23,0,-0.318l2.34,-2.34c0.088,-0.088,0.23,-0.088,0.318,0s0.088,0.23,0,0.318l-2.34,2.34C2.276,15.359,2.218,15.381,2.16,15.381z"/>
</g>
<g id="connector0pin">
<path fill="#787878" d="M9.9,22.166c-0.193,0,-0.35,-0.156,-0.35,-0.35l0,-7.2c0,-0.193,0.156,-0.35,0.35,-0.35s0.35,0.156,0.35,0.35l0,7.2C10.249,22.01,10.093,22.166,9.9,22.166z"/>
</g>
<g id="connector0terminal">
<rect y="21.816" fill="none" height="0.001" x="9.9" width="0.001"/>
</g>
<g transform="matrix(1, 0, 0, 1, 3.429, 6.4262)">
<g>
<g transform="rotate(270)">
<g>
<g enable-background="new    ">
<path fill="#787878" d="M-11.647,5.54l-0.891,0L-12.538,5.388l0.342,-0.372c0.049,-0.053,0.093,-0.101,0.131,-0.145s0.071,-0.086,0.099,-0.128c0.026,-0.042,0.047,-0.084,0.062,-0.125c0.015,-0.043,0.021,-0.088,0.021,-0.138c0,-0.038,-0.005,-0.072,-0.017,-0.102s-0.027,-0.054,-0.047,-0.075c-0.021,-0.02,-0.045,-0.035,-0.073,-0.046s-0.06,-0.016,-0.094,-0.016c-0.062,0,-0.118,0.013,-0.167,0.038c-0.051,0.024,-0.098,0.057,-0.143,0.096l-0.1,-0.116c0.025,-0.023,0.055,-0.046,0.084,-0.065c0.029,-0.021,0.063,-0.039,0.097,-0.054s0.071,-0.026,0.109,-0.036c0.038,-0.008,0.079,-0.013,0.121,-0.013c0.063,0,0.119,0.009,0.169,0.026c0.051,0.018,0.094,0.043,0.129,0.076c0.035,0.032,0.063,0.072,0.082,0.119c0.019,0.048,0.028,0.101,0.028,0.16c0,0.056,-0.009,0.108,-0.026,0.158c-0.017,0.05,-0.041,0.1,-0.07,0.148c-0.031,0.048,-0.066,0.097,-0.109,0.146c-0.041,0.049,-0.087,0.1,-0.136,0.152L-12.32,5.37l0,0.008l0.673,0L-11.647,5.54z"/>
</g>
</g>
</g>
</g>
</g>
<g id="connector1pin">
<path fill="#787878" d="M9.9,7.766c-0.193,0,-0.35,-0.157,-0.35,-0.35l0,-7.2c0,-0.193,0.156,-0.35,0.35,-0.35s0.35,0.157,0.35,0.35l0,7.2C10.249,7.609,10.093,7.766,9.9,7.766z"/>
</g>
<g id="connector1terminal">
<polygon fill="none" points="9.9,0.216,9.901,0.216,9.901,0.216"/>
</g>
<g transform="matrix(1, 0, 0, 1, 3.429, 1.3462)">
<g>
<g transform="rotate(270)">
<g>
<g enable-background="new    ">
<path fill="#787878" d="M-2.616,5.54l-0.172,0L-2.788,4.648c0,-0.028,0,-0.058,0,-0.09s0.001,-0.063,0.002,-0.095c0.001,-0.032,0.002,-0.063,0.003,-0.092c0.001,-0.028,0.002,-0.054,0.002,-0.076c-0.011,0.012,-0.021,0.021,-0.029,0.03s-0.017,0.017,-0.026,0.024s-0.018,0.016,-0.028,0.025c-0.01,0.008,-0.021,0.019,-0.035,0.03l-0.145,0.118l-0.094,-0.12l0.374,-0.292l0.146,0L-2.618,5.54z"/>
</g>
</g>
</g>
</g>
</g>
<g>
<path d="M0.18,13.536l1.08,-2.521l1.44,1.438L0.18,13.536z"/>
</g>
<g>
<path d="M0.54,16.776l1.08,-2.521l1.438,1.438L0.54,16.776z"/>
</g>
</g>
</g></g><g partID='854174860'><g transform='translate(202.097,32.058)' ><g id="schematic">
<line y2="11.159" fill="none" x2="21.6" x1="19.8" stroke="#000000" stroke-linecap="round" stroke-width="0.7" y1="11.159"/>
<line y2="7.559" fill="none" x2="19.8" x1="7.2" stroke="#000000" stroke-linecap="round" stroke-width="0.7" y1="11.159"/>
<circle fill="none" cy="11.159" stroke="#000000" stroke-width="0.7" r="0.36" cx="7.2"/>
<circle fill="none" cy="11.159" stroke="#000000" stroke-width="0.7" r="0.36" cx="21.6"/>
<g transform="matrix(1, 0, 0, 1, 2.7612, 2.718)">
<text fill="#787878" font-family="'DroidSans'" font-size="2">1</text>
</g>
<g transform="matrix(1, 0, 0, 1, 24.604, 2.718)">
<text fill="#787878" font-family="'DroidSans'" font-size="2">2</text>
</g>
<g transform="matrix(1, 0, 0, 1, 2.7612, 16.843)">
<text fill="#787878" font-family="'DroidSans'" font-size="2">1</text>
</g>
<g transform="matrix(1, 0, 0, 1, 24.604, 16.843)">
<text fill="#787878" font-family="'DroidSans'" font-size="2">2</text>
</g>
<line y2="18.359" fill="none" x2="21.6" x1="21.6" stroke="#000000" stroke-linecap="round" stroke-width="0.7" y1="3.96"/>
<line y2="18.359" fill="none" x2="7.2" x1="7.2" stroke="#000000" stroke-linecap="round" stroke-width="0.7" y1="3.96"/>
<line y2="18.359" id="connector3pin" fill="none" x2="7.2" x1="0.322" stroke="#555555" stroke-linecap="round" stroke-width="0.7" y1="18.359"/>
<line y2="3.96" id="connector2pin" fill="none" x2="7.2" x1="0.322" stroke="#555555" stroke-linecap="round" stroke-width="0.7" y1="3.96"/>
<g id="connector2terminal" fill="none" points="0.822,4.281,0.837,3.64,0,3.64,0,4.281"/>
<g id="connector3terminal" fill="none" points="0.822,18.694,0.837,18.053,0,18.053,0,18.694"/>
<line y2="18.359" id="connector1pin" fill="none" x2="21.6" x1="28.451" stroke="#555555" stroke-linecap="round" stroke-width="0.7" y1="18.359"/>
<g y="18.006" id="connector1terminal" fill="none" height="0.672" x="27.806" width="0.994"/>
<g y="3.6" id="connector0terminal" fill="none" height="0.719" x="27.712" width="1.088"/>
<line y2="3.96" id="connector0pin" fill="none" x2="21.6" x1="28.451" stroke="#555555" stroke-linecap="round" stroke-width="0.7" y1="3.96"/>
</g>
</g></g><g partID='854174910'><g transform='translate(132.85,107.64)' ><g id="schematic">
<path fill="#FFFFFF" stroke="#000000" stroke-width="0.9" d="M29.15,0.36c3.977,0,7.2,3.223,7.201,7.199c0.001,3.976,-3.223,7.2,-7.199,7.201c0,0,-0.001,0,-0.002,0l-14.4,0c-3.977,0.001,-7.2,-3.223,-7.201,-7.199c0,-3.977,3.223,-7.2,7.199,-7.201c0.001,0,0.001,0,0.002,0L29.15,0.36z"/>
<line y2="1.8" fill="none" x2="17.63" x1="17.63" stroke="#000000" stroke-linecap="round" stroke-width="0.5" y1="0.36"/>
<path fill="none" stroke="#000000" stroke-width="0.5" d="M17.63,1.8c0,0.795,0.646,1.44,1.44,1.44"/>
<line y2="3.24" fill="none" x2="25.55" x1="19.07" stroke="#000000" stroke-linecap="round" stroke-width="0.5" y1="3.24"/>
<path fill="none" stroke="#000000" stroke-width="0.5" d="M25.55,3.24c0.597,0,1.081,0.483,1.081,1.08c0,0.596,-0.483,1.08,-1.08,1.08c0,0,0,0,-0.001,0"/>
<line y2="5.4" fill="none" x2="25.55" x1="18.35" stroke="#000000" stroke-linecap="round" stroke-width="0.5" y1="5.4"/>
<path fill="none" stroke="#000000" stroke-width="0.5" d="M18.35,7.56c-0.597,0,-1.08,-0.483,-1.08,-1.08s0.483,-1.08,1.08,-1.08l0,0"/>
<line y2="7.56" fill="none" x2="25.55" x1="18.35" stroke="#000000" stroke-linecap="round" stroke-width="0.5" y1="7.56"/>
<path fill="none" stroke="#000000" stroke-width="0.5" d="M25.55,7.56c0.597,0,1.081,0.483,1.081,1.079c0.001,0.597,-0.482,1.081,-1.079,1.081c-0.001,0,-0.001,0,-0.002,0"/>
<line y2="9.72" fill="none" x2="25.55" x1="18.35" stroke="#000000" stroke-linecap="round" stroke-width="0.5" y1="9.72"/>
<path fill="none" stroke="#000000" stroke-width="0.5" d="M18.35,11.88c-0.597,0,-1.08,-0.484,-1.08,-1.08c0,-0.597,0.483,-1.08,1.08,-1.08l0,0"/>
<line y2="11.88" fill="none" x2="24.83" x1="18.35" stroke="#000000" stroke-linecap="round" stroke-width="0.5" y1="11.88"/>
<path fill="none" stroke="#000000" stroke-width="0.5" d="M26.27,13.32c0,-0.795,-0.645,-1.439,-1.44,-1.439l0,0"/>
<line y2="14.76" fill="none" x2="26.27" x1="26.27" stroke="#000000" stroke-linecap="round" stroke-width="0.5" y1="13.32"/>
<line y2="7.56" id="connector0pin" fill="none" x2="7.55" x1="0.35" stroke="#787878" stroke-linecap="round" stroke-width="0.75" y1="7.56"/>
<g y="7.56" id="connector0terminal" fill="none" height="0" x="0.35" width="0"/>
<g transform="matrix(1, 0, 0, 1, 3.2615, 6.5103)">
<text fill="#8C8C8C" font-family="'DroidSans'" font-size="2.5">1</text>
</g>
<line y2="7.56" id="connector1pin" fill="none" x2="36.35" x1="43.551" stroke="#787878" stroke-linecap="round" stroke-width="0.75" y1="7.56"/>
<g y="7.56" id="connector1terminal" fill="none" height="0" x="43.551" width="0"/>
<g transform="matrix(1, 0, 0, 1, 39.2615, 6.5103)">
<text fill="#8C8C8C" font-family="'DroidSans'" font-size="2.5">2</text>
</g>
</g>
</g></g><g partID='854174940'><g transform='translate(201.568,86.927)' ><g id="schematic">
<polyline fill="none" stroke="#000000" stroke-linecap="round" points="4.125,17.557,21.6,27.474,21.6,37.743" stroke-width="0.7"/>
<polygon points="4.23,19.505,-0.022,15.188,5.819,16.8"/>
<polyline fill="none" stroke="#000000" stroke-linecap="round" points="14.401,36,14.401,34.559,11.521,32.4,18.001,28.799,11.521,25.2,18.001,21.6,11.521,18,18.001,14.4,11.521,10.8,14.401,8.64,14.401,7.2" stroke-width="0.7"/>
<g id="connector1terminal" fill="none" d="M21.968,43.2l0,-1.054l-0.672,0.017L21.296,43.2L21.968,43.2z"/>
<line y2="36" id="connector1pin" fill="none" x2="21.621" x1="21.621" stroke="#787878" stroke-linecap="round" stroke-width="0.7" y1="42.85"/>
<line y2="36" id="connector0pin" fill="none" x2="14.4" x1="14.4" stroke="#787878" stroke-linecap="round" stroke-width="0.7" y1="42.85"/>
<g id="connector0terminal" fill="none" d="M14.047,42.176l0.703,0L14.719,43.2l-0.656,0L14.047,42.176z"/>
<g transform="matrix(1, 0, 0, 1, 11.521, 40.0005)">
<text fill="#787878" font-family="'DroidSans'" font-size="2">1</text>
</g>
<g transform="matrix(1, 0, 0, 1, 19.1245, 40.0005)">
<text fill="#787878" font-family="'DroidSans'" font-size="2">3</text>
</g>
<line y2="7.55" id="connector2pin" fill="none" x2="14.4" x1="14.4" stroke="#787878" stroke-linecap="round" stroke-width="0.7" y1="0.35"/>
<g id="connector2terminal" fill="none" d="M14.15,-0.25l0,0.5l0.497,-0.01l0.003,-0.49L14.15,-0.25z"/>
<g transform="matrix(1, 0, 0, 1, 11.521, 4.9751)">
<text fill="#787878" font-family="'DroidSans'" font-size="2">2</text>
</g>
</g>
</g></g><g partID='57560' id='partLabel'><g transform='translate(150.068,27.7187)' ><g font-size='5' font-style='normal' font-weight='normal' fill='#000000' font-family="'DroidSans'" id='schematicLabel' fill-opacity='1' stroke='none' ><text x='0' y='3.75'>R1</text><text x='0' y='8.75'>220&#x3a9;</text></g></g></g><g partID='854174770' id='partLabel'><g transform='translate(30.2519,45.837)' ><g font-size='5' font-style='normal' font-weight='normal' fill='#000000' font-family="'DroidSans'" id='schematicLabel' fill-opacity='1' stroke='none' ><text x='0' y='3.75'>Placa Arduino1</text></g></g></g><g partID='854174830' id='partLabel'><g transform='translate(160.668,69.2655)' ><g font-size='5' font-style='normal' font-weight='normal' fill='#000000' font-family="'DroidSans'" id='schematicLabel' fill-opacity='1' stroke='none' ><text x='0' y='3.75'>LED1</text><text x='0' y='8.75'>Red (633nm)</text></g></g></g><g partID='854174860' id='partLabel'><g transform='translate(230.897,26.458)' ><g font-size='5' font-style='normal' font-weight='normal' fill='#000000' font-family="'DroidSans'" id='schematicLabel' fill-opacity='1' stroke='none' ><text x='0' y='3.75'>S1</text></g></g></g><g partID='854174910' id='partLabel'><g transform='translate(152.369,98.9924)' ><g font-size='5' font-style='normal' font-weight='normal' fill='#000000' font-family="'DroidSans'" id='schematicLabel' fill-opacity='1' stroke='none' ><text x='0' y='3.75'>R2</text></g></g></g><g partID='854174940' id='partLabel'><g transform='translate(230.368,81.327)' ><g font-size='5' font-style='normal' font-weight='normal' fill='#000000' font-family="'DroidSans'" id='schematicLabel' fill-opacity='1' stroke='none' ><text x='0' y='3.75'>R3</text></g></g></g></svg>